<?xml version="1.0" encoding="UTF-8" standalone="no"?>
<score-partwise>
    <work>
        <work-title/>
    </work>
    <identification>
        <encoding>
            <software>TuxGuitar</software>
        </encoding>
        <creator type="composer"/>
    </identification>
    <part-list>
        <score-part id="P1">
            <part-name>drums</part-name>
            <score-instrument id="P1-I1">
                <instrument-name>Piano</instrument-name>
            </score-instrument>
            <midi-instrument id="P1-I1">
                <midi-channel>10</midi-channel>
                <midi-program>1</midi-program>
            </midi-instrument>
        </score-part>
    </part-list>
    <part id="P1">
        <measure number="1">
            <attributes>
                <divisions>960</divisions>
                <key>
                    <fifths>0</fifths>
                    <mode>major</mode>
                </key>
                <clef>
                    <sign>G</sign>
                    <line>2</line>
                </clef>
                <time>
                    <beats>4</beats>
                    <beat-type>4</beat-type>
                </time>
                <staff-details>
                    <staff-lines>6</staff-lines>
                    <staff-tuning line="1">
                        <tuning-step>C</tuning-step>
                        <tuning-octave>0</tuning-octave>
                    </staff-tuning>
                    <staff-tuning line="2">
                        <tuning-step>C</tuning-step>
                        <tuning-octave>0</tuning-octave>
                    </staff-tuning>
                    <staff-tuning line="3">
                        <tuning-step>C</tuning-step>
                        <tuning-octave>0</tuning-octave>
                    </staff-tuning>
                    <staff-tuning line="4">
                        <tuning-step>C</tuning-step>
                        <tuning-octave>0</tuning-octave>
                    </staff-tuning>
                    <staff-tuning line="5">
                        <tuning-step>C</tuning-step>
                        <tuning-octave>0</tuning-octave>
                    </staff-tuning>
                    <staff-tuning line="6">
                        <tuning-step>C</tuning-step>
                        <tuning-octave>0</tuning-octave>
                    </staff-tuning>
                </staff-details>
            </attributes>
            <direction placement="above">
                <sound tempo="92"/>
            </direction>
            <note>
                <rest/>
                <voice>1</voice>
                <duration>3840</duration>
                <type>whole</type>
            </note>
        </measure>
        <measure number="2">
            <note>
                <rest/>
                <voice>1</voice>
                <duration>3840</duration>
                <type>whole</type>
            </note>
        </measure>
        <measure number="3">
            <note>
                <rest/>
                <voice>1</voice>
                <duration>3840</duration>
                <type>whole</type>
            </note>
        </measure>
        <measure number="4">
            <note>
                <rest/>
                <voice>1</voice>
                <duration>3840</duration>
                <type>whole</type>
            </note>
        </measure>
        <measure number="5">
            <note>
                <rest/>
                <voice>1</voice>
                <duration>3840</duration>
                <type>whole</type>
            </note>
        </measure>
        <measure number="6">
            <note>
                <rest/>
                <voice>1</voice>
                <duration>3840</duration>
                <type>whole</type>
            </note>
        </measure>
        <measure number="7">
            <note>
                <pitch>
                    <step>C</step>
                    <octave>3</octave>
                </pitch>
                <notations>
                    <technical>
                        <fret>36</fret>
                        <string>6</string>
                    </technical>
                </notations>
                <voice>1</voice>
                <duration>480</duration>
                <type>eighth</type>
            </note>
            <note>
                <pitch>
                    <step>C</step>
                    <octave>4</octave>
                    <alter>1</alter>
                </pitch>
                <notations>
                    <technical>
                        <fret>49</fret>
                        <string>1</string>
                    </technical>
                </notations>
                <voice>1</voice>
                <duration>480</duration>
                <type>eighth</type>
                <chord/>
            </note>
            <note>
                <pitch>
                    <step>F</step>
                    <octave>3</octave>
                    <alter>1</alter>
                </pitch>
                <notations>
                    <technical>
                        <fret>42</fret>
                        <string>1</string>
                    </technical>
                </notations>
                <voice>1</voice>
                <duration>240</duration>
                <type>16th</type>
            </note>
            <note>
                <pitch>
                    <step>C</step>
                    <octave>3</octave>
                </pitch>
                <notations>
                    <technical>
                        <fret>36</fret>
                        <string>6</string>
                    </technical>
                </notations>
                <voice>1</voice>
                <duration>240</duration>
                <type>16th</type>
            </note>
            <note>
                <pitch>
                    <step>D</step>
                    <octave>3</octave>
                </pitch>
                <notations>
                    <technical>
                        <fret>38</fret>
                        <string>5</string>
                    </technical>
                </notations>
                <voice>1</voice>
                <duration>480</duration>
                <type>eighth</type>
            </note>
            <note>
                <pitch>
                    <step>F</step>
                    <octave>3</octave>
                    <alter>1</alter>
                </pitch>
                <notations>
                    <technical>
                        <fret>42</fret>
                        <string>1</string>
                    </technical>
                </notations>
                <voice>1</voice>
                <duration>480</duration>
                <type>eighth</type>
                <chord/>
            </note>
            <note>
                <pitch>
                    <step>F</step>
                    <octave>3</octave>
                    <alter>1</alter>
                </pitch>
                <notations>
                    <technical>
                        <fret>42</fret>
                        <string>1</string>
                    </technical>
                </notations>
                <voice>1</voice>
                <duration>480</duration>
                <type>eighth</type>
            </note>
            <note>
                <pitch>
                    <step>F</step>
                    <octave>3</octave>
                    <alter>1</alter>
                </pitch>
                <notations>
                    <technical>
                        <fret>42</fret>
                        <string>1</string>
                    </technical>
                </notations>
                <voice>1</voice>
                <duration>240</duration>
                <type>16th</type>
            </note>
            <note>
                <pitch>
                    <step>C</step>
                    <octave>3</octave>
                </pitch>
                <notations>
                    <technical>
                        <fret>36</fret>
                        <string>6</string>
                    </technical>
                </notations>
                <voice>1</voice>
                <duration>240</duration>
                <type>16th</type>
                <chord/>
            </note>
            <note>
                <pitch>
                    <step>C</step>
                    <octave>3</octave>
                </pitch>
                <notations>
                    <technical>
                        <fret>36</fret>
                        <string>6</string>
                    </technical>
                </notations>
                <voice>1</voice>
                <duration>240</duration>
                <type>16th</type>
            </note>
            <note>
                <pitch>
                    <step>F</step>
                    <octave>3</octave>
                    <alter>1</alter>
                </pitch>
                <notations>
                    <technical>
                        <fret>42</fret>
                        <string>1</string>
                    </technical>
                </notations>
                <voice>1</voice>
                <duration>240</duration>
                <type>16th</type>
            </note>
            <note>
                <pitch>
                    <step>C</step>
                    <octave>3</octave>
                </pitch>
                <notations>
                    <technical>
                        <fret>36</fret>
                        <string>6</string>
                    </technical>
                </notations>
                <voice>1</voice>
                <duration>240</duration>
                <type>16th</type>
            </note>
            <note>
                <pitch>
                    <step>F</step>
                    <octave>3</octave>
                    <alter>1</alter>
                </pitch>
                <notations>
                    <technical>
                        <fret>42</fret>
                        <string>1</string>
                    </technical>
                </notations>
                <voice>1</voice>
                <duration>480</duration>
                <type>eighth</type>
            </note>
            <note>
                <pitch>
                    <step>D</step>
                    <octave>3</octave>
                </pitch>
                <notations>
                    <technical>
                        <fret>38</fret>
                        <string>5</string>
                    </technical>
                </notations>
                <voice>1</voice>
                <duration>480</duration>
                <type>eighth</type>
                <chord/>
            </note>
            <note>
                <pitch>
                    <step>A</step>
                    <octave>3</octave>
                    <alter>1</alter>
                </pitch>
                <notations>
                    <technical>
                        <fret>46</fret>
                        <string>1</string>
                    </technical>
                </notations>
                <voice>1</voice>
                <duration>480</duration>
                <type>eighth</type>
            </note>
        </measure>
        <measure number="8">
            <note>
                <pitch>
                    <step>C</step>
                    <octave>3</octave>
                </pitch>
                <notations>
                    <technical>
                        <fret>36</fret>
                        <string>6</string>
                    </technical>
                </notations>
                <voice>1</voice>
                <duration>480</duration>
                <type>eighth</type>
            </note>
            <note>
                <pitch>
                    <step>F</step>
                    <octave>3</octave>
                    <alter>1</alter>
                </pitch>
                <notations>
                    <technical>
                        <fret>42</fret>
                        <string>1</string>
                    </technical>
                </notations>
                <voice>1</voice>
                <duration>480</duration>
                <type>eighth</type>
                <chord/>
            </note>
            <note>
                <pitch>
                    <step>F</step>
                    <octave>3</octave>
                    <alter>1</alter>
                </pitch>
                <notations>
                    <technical>
                        <fret>42</fret>
                        <string>1</string>
                    </technical>
                </notations>
                <voice>1</voice>
                <duration>240</duration>
                <type>16th</type>
            </note>
            <note>
                <pitch>
                    <step>C</step>
                    <octave>3</octave>
                </pitch>
                <notations>
                    <technical>
                        <fret>36</fret>
                        <string>6</string>
                    </technical>
                </notations>
                <voice>1</voice>
                <duration>240</duration>
                <type>16th</type>
            </note>
            <note>
                <pitch>
                    <step>D</step>
                    <octave>3</octave>
                </pitch>
                <notations>
                    <technical>
                        <fret>38</fret>
                        <string>5</string>
                    </technical>
                </notations>
                <voice>1</voice>
                <duration>480</duration>
                <type>eighth</type>
            </note>
            <note>
                <pitch>
                    <step>F</step>
                    <octave>3</octave>
                    <alter>1</alter>
                </pitch>
                <notations>
                    <technical>
                        <fret>42</fret>
                        <string>1</string>
                    </technical>
                </notations>
                <voice>1</voice>
                <duration>480</duration>
                <type>eighth</type>
                <chord/>
            </note>
            <note>
                <pitch>
                    <step>F</step>
                    <octave>3</octave>
                    <alter>1</alter>
                </pitch>
                <notations>
                    <technical>
                        <fret>42</fret>
                        <string>1</string>
                    </technical>
                </notations>
                <voice>1</voice>
                <duration>480</duration>
                <type>eighth</type>
            </note>
            <note>
                <pitch>
                    <step>F</step>
                    <octave>3</octave>
                    <alter>1</alter>
                </pitch>
                <notations>
                    <technical>
                        <fret>42</fret>
                        <string>1</string>
                    </technical>
                </notations>
                <voice>1</voice>
                <duration>240</duration>
                <type>16th</type>
            </note>
            <note>
                <pitch>
                    <step>C</step>
                    <octave>3</octave>
                </pitch>
                <notations>
                    <technical>
                        <fret>36</fret>
                        <string>6</string>
                    </technical>
                </notations>
                <voice>1</voice>
                <duration>240</duration>
                <type>16th</type>
                <chord/>
            </note>
            <note>
                <pitch>
                    <step>C</step>
                    <octave>3</octave>
                </pitch>
                <notations>
                    <technical>
                        <fret>36</fret>
                        <string>6</string>
                    </technical>
                </notations>
                <voice>1</voice>
                <duration>240</duration>
                <type>16th</type>
            </note>
            <note>
                <pitch>
                    <step>F</step>
                    <octave>3</octave>
                    <alter>1</alter>
                </pitch>
                <notations>
                    <technical>
                        <fret>42</fret>
                        <string>1</string>
                    </technical>
                </notations>
                <voice>1</voice>
                <duration>240</duration>
                <type>16th</type>
            </note>
            <note>
                <pitch>
                    <step>C</step>
                    <octave>3</octave>
                </pitch>
                <notations>
                    <technical>
                        <fret>36</fret>
                        <string>6</string>
                    </technical>
                </notations>
                <voice>1</voice>
                <duration>240</duration>
                <type>16th</type>
            </note>
            <note>
                <pitch>
                    <step>F</step>
                    <octave>3</octave>
                    <alter>1</alter>
                </pitch>
                <notations>
                    <technical>
                        <fret>42</fret>
                        <string>1</string>
                    </technical>
                </notations>
                <voice>1</voice>
                <duration>480</duration>
                <type>eighth</type>
            </note>
            <note>
                <pitch>
                    <step>D</step>
                    <octave>3</octave>
                </pitch>
                <notations>
                    <technical>
                        <fret>38</fret>
                        <string>5</string>
                    </technical>
                </notations>
                <voice>1</voice>
                <duration>480</duration>
                <type>eighth</type>
                <chord/>
            </note>
            <note>
                <pitch>
                    <step>A</step>
                    <octave>3</octave>
                    <alter>1</alter>
                </pitch>
                <notations>
                    <technical>
                        <fret>46</fret>
                        <string>1</string>
                    </technical>
                </notations>
                <voice>1</voice>
                <duration>480</duration>
                <type>eighth</type>
            </note>
        </measure>
        <measure number="9">
            <note>
                <rest/>
                <voice>1</voice>
                <duration>3840</duration>
                <type>whole</type>
            </note>
        </measure>
        <measure number="10">
            <note>
                <rest/>
                <voice>1</voice>
                <duration>3840</duration>
                <type>whole</type>
            </note>
        </measure>
        <measure number="11">
            <note>
                <rest/>
                <voice>1</voice>
                <duration>3840</duration>
                <type>whole</type>
            </note>
        </measure>
        <measure number="12">
            <note>
                <rest/>
                <voice>1</voice>
                <duration>3840</duration>
                <type>whole</type>
            </note>
        </measure>
    </part>
</score-partwise>
